<?xml version="1.0" standalone="no"?>
<!DOCTYPE svg PUBLIC "-//W3C//DTD SVG 20010904//EN"
 "http://www.w3.org/TR/2001/REC-SVG-20010904/DTD/svg10.dtd">
<svg version="1.0" xmlns="http://www.w3.org/2000/svg"
 width="50.000000pt" height="50.000000pt" viewBox="0 0 50.000000 50.000000"
 preserveAspectRatio="xMidYMid meet">

<g transform="translate(0.000000,50.000000) scale(0.100000,-0.100000)"
fill="#000000" stroke="none">
<path d="M70 250 l0 -230 116 0 c74 0 113 4 109 10 -3 6 -50 10 -106 10 l-99
0 0 210 0 210 110 0 110 0 0 -50 0 -50 50 0 50 0 0 -55 c0 -30 5 -55 10 -55 6
0 10 28 10 63 0 62 0 63 -53 115 l-53 52 -127 0 -127 0 0 -230z m295 160 l29
-30 -32 0 c-29 0 -32 3 -32 30 0 17 1 30 3 30 2 0 16 -13 32 -30z"/>
<path d="M140 290 c0 -27 3 -30 30 -30 27 0 30 3 30 30 0 27 -3 30 -30 30 -27
0 -30 -3 -30 -30z m40 0 c0 -5 -4 -10 -10 -10 -5 0 -10 5 -10 10 0 6 5 10 10
10 6 0 10 -4 10 -10z"/>
<path d="M220 290 c0 -6 30 -10 70 -10 40 0 70 4 70 10 0 6 -30 10 -70 10 -40
0 -70 -4 -70 -10z"/>
<path d="M140 210 c0 -27 3 -30 30 -30 27 0 30 3 30 30 0 27 -3 30 -30 30 -27
0 -30 -3 -30 -30z m40 0 c0 -5 -4 -10 -10 -10 -5 0 -10 5 -10 10 0 6 5 10 10
10 6 0 10 -4 10 -10z"/>
<path d="M373 216 c4 -9 -5 -19 -24 -26 -52 -22 -72 -85 -45 -139 35 -66 137
-66 172 0 27 54 7 117 -45 139 -19 7 -28 17 -24 26 3 9 -2 14 -17 14 -15 0
-20 -5 -17 -14z m72 -61 c50 -49 15 -135 -55 -135 -41 0 -80 39 -80 80 0 70
86 105 135 55z"/>
<path d="M380 130 c0 -18 -6 -33 -15 -36 -8 -4 -15 -13 -15 -20 0 -12 4 -12
25 2 19 12 25 25 25 50 0 19 -4 34 -10 34 -5 0 -10 -14 -10 -30z"/>
<path d="M220 210 c0 -13 100 -13 120 0 11 7 -5 10 -52 10 -39 0 -68 -4 -68
-10z"/>
<path d="M462 189 c2 -7 10 -15 17 -17 8 -3 12 1 9 9 -2 7 -10 15 -17 17 -8 3
-12 -1 -9 -9z"/>
<path d="M140 130 c0 -27 3 -30 30 -30 27 0 30 3 30 30 0 27 -3 30 -30 30 -27
0 -30 -3 -30 -30z m40 0 c0 -5 -4 -10 -10 -10 -5 0 -10 5 -10 10 0 6 5 10 10
10 6 0 10 -4 10 -10z"/>
<path d="M220 130 c0 -5 11 -10 24 -10 14 0 28 5 31 10 4 6 -7 10 -24 10 -17
0 -31 -4 -31 -10z"/>
</g>
</svg>
